<?xml version="1.0" encoding="UTF-8" standalone="no"?>
<!DOCTYPE svg PUBLIC "-//W3C//DTD SVG 1.1//EN"
 "http://www.w3.org/Graphics/SVG/1.1/DTD/svg11.dtd">
<!-- Generated by graphviz version 2.43.0 (0)
 -->
<!-- Title: %3 Pages: 1 -->
<svg width="293pt" height="165pt"
 viewBox="0.00 0.00 293.00 164.74" xmlns="http://www.w3.org/2000/svg" xmlns:xlink="http://www.w3.org/1999/xlink">
<g id="graph0" class="graph" transform="scale(1 1) rotate(0) translate(36 128.74)">
<title>%3</title>
<polygon fill="dimgray" stroke="transparent" points="-36,36 -36,-128.74 257,-128.74 257,36 -36,36"/>
<text text-anchor="middle" x="110.5" y="-77.54" font-family="Helvetica,sans-Serif" font-size="14.00">Sweep&#39;s Plan &amp; Progress</text>
<!-- start -->
<g id="node1" class="node">
<title>start</title>
</g>
<!-- 08c1a69a&#45;7896&#45;480c&#45;be49&#45;529a544e900c -->
<g id="node3" class="node">
<title>08c1a69a&#45;7896&#45;480c&#45;be49&#45;529a544e900c</title>
<ellipse fill="#0ee832" stroke="black" cx="107.5" cy="-26.87" rx="55.31" ry="26.74"/>
<text text-anchor="middle" x="107.5" y="-30.67" font-family="Helvetica,sans-Serif" font-size="14.00">✓ Create</text>
<text text-anchor="middle" x="107.5" y="-15.67" font-family="Helvetica,sans-Serif" font-size="14.00">main.py</text>
</g>
<!-- start&#45;&gt;08c1a69a&#45;7896&#45;480c&#45;be49&#45;529a544e900c -->
<g id="edge1" class="edge">
<title>start&#45;&gt;08c1a69a&#45;7896&#45;480c&#45;be49&#45;529a544e900c</title>
<path fill="none" stroke="black" d="M1.18,-26.87C4.79,-26.87 22.21,-26.87 41.94,-26.87"/>
<polygon fill="black" stroke="black" points="42.09,-30.37 52.09,-26.87 42.09,-23.37 42.09,-30.37"/>
<text text-anchor="middle" x="26.67" y="-33.67" font-family="Helvetica,sans-Serif" font-size="14.00">Start</text>
</g>
<!-- end -->
<g id="node2" class="node">
<title>end</title>
</g>
<!-- 08c1a69a&#45;7896&#45;480c&#45;be49&#45;529a544e900c&#45;&gt;end -->
<g id="edge2" class="edge">
<title>08c1a69a&#45;7896&#45;480c&#45;be49&#45;529a544e900c&#45;&gt;end</title>
<path fill="none" stroke="black" d="M162.68,-26.87C180.55,-26.87 198.6,-26.87 209.66,-26.87"/>
<polygon fill="black" stroke="black" points="209.76,-30.37 219.76,-26.87 209.76,-23.37 209.76,-30.37"/>
<text text-anchor="middle" x="191.33" y="-33.67" font-family="Helvetica,sans-Serif" font-size="14.00">Finish</text>
</g>
</g>
</svg>
