<?xml version="1.0" encoding="UTF-8" standalone="no"?>
<!DOCTYPE svg PUBLIC "-//W3C//DTD SVG 1.1//EN"
 "http://www.w3.org/Graphics/SVG/1.1/DTD/svg11.dtd">
<!-- Generated by graphviz version 2.43.0 (0)
 -->
<!-- Title: %3 Pages: 1 -->
<svg width="338pt" height="238pt"
 viewBox="0.00 0.00 338.00 237.74" xmlns="http://www.w3.org/2000/svg" xmlns:xlink="http://www.w3.org/1999/xlink">
<g id="graph0" class="graph" transform="scale(1 1) rotate(0) translate(36 201.74)">
<title>%3</title>
<polygon fill="dimgray" stroke="transparent" points="-36,36 -36,-201.74 302,-201.74 302,36 -36,36"/>
<text text-anchor="middle" x="133" y="-150.54" font-family="Helvetica,sans-Serif" font-size="14.00">Sweep&#39;s Plan &amp; Progress</text>
<!-- start -->
<g id="node1" class="node">
<title>start</title>
</g>
<!-- 7ffda13b&#45;51e2&#45;4846&#45;958c&#45;536715d4846e -->
<g id="node3" class="node">
<title>7ffda13b&#45;51e2&#45;4846&#45;958c&#45;536715d4846e</title>
<ellipse fill="#0ee832" stroke="black" cx="133" cy="-99.87" rx="55.72" ry="26.74"/>
<text text-anchor="middle" x="133" y="-103.67" font-family="Helvetica,sans-Serif" font-size="14.00">✓ Modify</text>
<text text-anchor="middle" x="133" y="-88.67" font-family="Helvetica,sans-Serif" font-size="14.00">main.py</text>
</g>
<!-- start&#45;&gt;7ffda13b&#45;51e2&#45;4846&#45;958c&#45;536715d4846e -->
<g id="edge2" class="edge">
<title>start&#45;&gt;7ffda13b&#45;51e2&#45;4846&#45;958c&#45;536715d4846e</title>
<path fill="none" stroke="black" d="M25.69,-99.87C29.33,-99.87 46.92,-99.87 66.83,-99.87"/>
<polygon fill="black" stroke="black" points="67.07,-103.37 77.07,-99.87 67.07,-96.37 67.07,-103.37"/>
<text text-anchor="middle" x="51.32" y="-106.67" font-family="Helvetica,sans-Serif" font-size="14.00">Start</text>
</g>
<!-- end -->
<g id="node2" class="node">
<title>end</title>
</g>
<!-- 7ffda13b&#45;51e2&#45;4846&#45;958c&#45;536715d4846e&#45;&gt;end -->
<g id="edge3" class="edge">
<title>7ffda13b&#45;51e2&#45;4846&#45;958c&#45;536715d4846e&#45;&gt;end</title>
<path fill="none" stroke="black" d="M189,-99.87C206.96,-99.87 225.06,-99.87 236.15,-99.87"/>
<polygon fill="black" stroke="black" points="236.26,-103.37 246.26,-99.87 236.26,-96.37 236.26,-103.37"/>
<text text-anchor="middle" x="217.68" y="-106.67" font-family="Helvetica,sans-Serif" font-size="14.00">Finish</text>
</g>
<!-- b0adb4e9&#45;6e61&#45;4b61&#45;9738&#45;fc21a24a6a33 -->
<g id="node4" class="node">
<title>b0adb4e9&#45;6e61&#45;4b61&#45;9738&#45;fc21a24a6a33</title>
<polygon fill="#0ee832" stroke="black" points="266,-36 0,-36 0,0 266,0 266,-36"/>
<text text-anchor="middle" x="133" y="-14.3" font-family="Helvetica,sans-Serif" font-size="14.00">✓ Run GitHub Actions for `main.py`</text>
</g>
<!-- 7ffda13b&#45;51e2&#45;4846&#45;958c&#45;536715d4846e&#45;&gt;b0adb4e9&#45;6e61&#45;4b61&#45;9738&#45;fc21a24a6a33 -->
<g id="edge1" class="edge">
<title>7ffda13b&#45;51e2&#45;4846&#45;958c&#45;536715d4846e&#45;&gt;b0adb4e9&#45;6e61&#45;4b61&#45;9738&#45;fc21a24a6a33</title>
<path fill="none" stroke="black" stroke-dasharray="5,2" d="M133,-72.72C133,-64.27 133,-54.89 133,-46.36"/>
<polygon fill="black" stroke="black" points="136.5,-46.15 133,-36.15 129.5,-46.15 136.5,-46.15"/>
</g>
</g>
</svg>
