<?xml version="1.0" encoding="UTF-8" standalone="no"?>
<!DOCTYPE svg PUBLIC "-//W3C//DTD SVG 1.1//EN"
 "http://www.w3.org/Graphics/SVG/1.1/DTD/svg11.dtd">
<!-- Generated by graphviz version 2.43.0 (0)
 -->
<!-- Title: %3 Pages: 1 -->
<svg width="336pt" height="238pt"
 viewBox="0.00 0.00 336.00 237.74" xmlns="http://www.w3.org/2000/svg" xmlns:xlink="http://www.w3.org/1999/xlink">
<g id="graph0" class="graph" transform="scale(1 1) rotate(0) translate(36 201.74)">
<title>%3</title>
<polygon fill="dimgray" stroke="transparent" points="-36,36 -36,-201.74 300,-201.74 300,36 -36,36"/>
<text text-anchor="middle" x="132" y="-150.54" font-family="Helvetica,sans-Serif" font-size="14.00">Sweep&#39;s Plan &amp; Progress</text>
<!-- start -->
<g id="node1" class="node">
<title>start</title>
</g>
<!-- 9f87967a&#45;f45a&#45;460a&#45;91b7&#45;141a69e0f3cf -->
<g id="node3" class="node">
<title>9f87967a&#45;f45a&#45;460a&#45;91b7&#45;141a69e0f3cf</title>
<ellipse fill="yellow" stroke="black" cx="132" cy="-99.87" rx="57.05" ry="26.74"/>
<text text-anchor="middle" x="132" y="-103.67" font-family="Helvetica,sans-Serif" font-size="14.00">⋯ Modify</text>
<text text-anchor="middle" x="132" y="-88.67" font-family="Helvetica,sans-Serif" font-size="14.00">main.py</text>
</g>
<!-- start&#45;&gt;9f87967a&#45;f45a&#45;460a&#45;91b7&#45;141a69e0f3cf -->
<g id="edge2" class="edge">
<title>start&#45;&gt;9f87967a&#45;f45a&#45;460a&#45;91b7&#45;141a69e0f3cf</title>
<path fill="none" stroke="black" d="M23.7,-99.87C27.33,-99.87 44.67,-99.87 64.46,-99.87"/>
<polygon fill="black" stroke="black" points="64.64,-103.37 74.64,-99.87 64.64,-96.37 64.64,-103.37"/>
<text text-anchor="middle" x="49.11" y="-106.67" font-family="Helvetica,sans-Serif" font-size="14.00">Start</text>
</g>
<!-- end -->
<g id="node2" class="node">
<title>end</title>
</g>
<!-- 9f87967a&#45;f45a&#45;460a&#45;91b7&#45;141a69e0f3cf&#45;&gt;end -->
<g id="edge3" class="edge">
<title>9f87967a&#45;f45a&#45;460a&#45;91b7&#45;141a69e0f3cf&#45;&gt;end</title>
<path fill="none" stroke="black" d="M189.5,-99.87C207.21,-99.87 224.92,-99.87 235.91,-99.87"/>
<polygon fill="black" stroke="black" points="236.27,-103.37 246.27,-99.87 236.27,-96.37 236.27,-103.37"/>
<text text-anchor="middle" x="217.89" y="-106.67" font-family="Helvetica,sans-Serif" font-size="14.00">Finish</text>
</g>
<!-- b70dc991&#45;e255&#45;4b82&#45;ad9e&#45;86d035a65072 -->
<g id="node4" class="node">
<title>b70dc991&#45;e255&#45;4b82&#45;ad9e&#45;86d035a65072</title>
<polygon fill="white" stroke="black" points="264,-36 0,-36 0,0 264,0 264,-36"/>
<text text-anchor="middle" x="132" y="-14.3" font-family="Helvetica,sans-Serif" font-size="14.00">▶ Run GitHub Actions for `main.py`</text>
</g>
<!-- 9f87967a&#45;f45a&#45;460a&#45;91b7&#45;141a69e0f3cf&#45;&gt;b70dc991&#45;e255&#45;4b82&#45;ad9e&#45;86d035a65072 -->
<g id="edge1" class="edge">
<title>9f87967a&#45;f45a&#45;460a&#45;91b7&#45;141a69e0f3cf&#45;&gt;b70dc991&#45;e255&#45;4b82&#45;ad9e&#45;86d035a65072</title>
<path fill="none" stroke="black" stroke-dasharray="5,2" d="M132,-72.72C132,-64.27 132,-54.89 132,-46.36"/>
<polygon fill="black" stroke="black" points="135.5,-46.15 132,-36.15 128.5,-46.15 135.5,-46.15"/>
</g>
</g>
</svg>
